<?xml version="1.0" encoding="UTF-8"?>
<svg version="1.1" xmlns="http://www.w3.org/2000/svg" width="38" height="38">
<path d="M0 0 C4.0339789 4.01313147 5.79850437 8.05813042 6.13671875 13.73046875 C5.77479805 19.73835245 3.16549613 24.71198928 -1 29 C-5.21271885 32.37017508 -9.70627062 33.1502394 -15 33 C-21.12383771 31.67444658 -25.82444692 28.71944135 -29.75 23.8125 C-32.12129264 18.47709157 -32.74081418 13.32419783 -30.8125 7.75 C-28.42827959 2.3234712 -25.38323938 -1.37402957 -20 -4 C-12.9460613 -6.2877639 -5.67966336 -4.54649452 0 0 Z M-24.875 4.6875 C-27.37817214 8.58950363 -28.29494334 11.38815869 -28 16 C-26.36009782 21.6914252 -23.98462179 24.80231809 -19 28 C-14.71565534 29.41069885 -11.64229459 29.18506793 -7.3125 27.9375 C-3.05568168 25.44766287 0.04346046 22.90504601 1.6328125 18.078125 C2.55543302 13.01352728 1.63009303 9.49661067 -1 5 C-4.6652394 1.07904622 -7.69455268 -0.79576858 -12.984375 -1.12890625 C-18.0513375 -0.80485632 -21.25240065 1.30115713 -24.875 4.6875 Z " fill="#FFFFFF" transform="translate(32,5)"/>
<path d="M0 0 C1.32 0 2.64 0 4 0 C4 4.29 4 8.58 4 13 C2.68 13 1.36 13 0 13 C0 8.71 0 4.42 0 0 Z " fill="#FFFFFF" transform="translate(17,9)"/>
<path d="M0 0 C1.32 0 2.64 0 4 0 C3.67 1.32 3.34 2.64 3 4 C2.01 3.67 1.02 3.34 0 3 C0 2.01 0 1.02 0 0 Z " fill="#FFFFFF" transform="translate(17,24)"/>
</svg>
