<?xml version="1.0" encoding="UTF-8"?>
<svg version="1.1" xmlns="http://www.w3.org/2000/svg" width="25" height="25">
<path d="M0 0 C2.86182827 1.70162762 3.76849906 3.16046043 4.6484375 6.3515625 C5.16593301 8.89404046 5.58549584 11.43910301 6 14 C6.33 15.32 6.66 16.64 7 18 C0.07 18 -6.86 18 -14 18 C-13.67 16.68 -13.34 15.36 -13 14 C-12.78601563 13.02804687 -12.57203125 12.05609375 -12.3515625 11.0546875 C-12.11179687 10.00539063 -11.87203125 8.95609375 -11.625 7.875 C-11.39039063 6.82054687 -11.15578125 5.76609375 -10.9140625 4.6796875 C-9.06008885 -0.75546602 -5.06708817 -0.5333777 0 0 Z M-8 5 C-8.67940467 7.42715206 -8.67940467 7.42715206 -9.125 10.125 C-9.41375 11.73375 -9.7025 13.3425 -10 15 C-6.04 15 -2.08 15 2 15 C1.814375 12.586875 1.814375 12.586875 1.625 10.125 C1.55539063 9.22007813 1.48578125 8.31515625 1.4140625 7.3828125 C1.20431868 4.82058097 1.20431868 4.82058097 -1 3 C-4.9674509 2.56530472 -4.9674509 2.56530472 -8 5 Z " fill="#2C2C2C" transform="translate(16,1)"/>
<path d="M0 0 C1.65 0 3.3 0 5 0 C5 1.32 5 2.64 5 4 C3.35 4 1.7 4 0 4 C0 2.68 0 1.36 0 0 Z " fill="#2B2B2B" transform="translate(10,20)"/>
</svg>
