<?xml version="1.0" encoding="UTF-8"?>
<svg version="1.1" xmlns="http://www.w3.org/2000/svg" width="25" height="25">
<path d="M0 0 C3.36152634 2.10095396 3.87002894 3.47011799 4.8125 7.3125 C5.0021295 11.04188009 4.67330271 14.33424079 4 18 C-8.04784547 18.56968796 -8.04784547 18.56968796 -12 15 C-14.10101595 12.3259797 -13.99846976 10.95715315 -13.875 7.5 C-11.95692136 -0.17231455 -7.25279505 -1.29323735 0 0 Z M-11 6 C-11.46226472 9.23585302 -11.63276496 11.08249081 -9.75 13.8125 C-6.76066543 15.84097703 -4.82356559 16.1310218 -1.25 15.5625 C-0.13625 15.2840625 -0.13625 15.2840625 1 15 C2.33913545 8.9796234 2.33913545 8.9796234 0.375 3.4375 C-4.48202532 0.49772151 -7.73826333 1.40940765 -11 6 Z " fill="#000000" transform="translate(17,4)"/>
</svg>
