<?xml version="1.0" encoding="UTF-8"?>
<svg version="1.1" xmlns="http://www.w3.org/2000/svg" width="32" height="32">
<path d="M0 0 C8.43661972 5.30985915 8.43661972 5.30985915 10 10 C10.16798795 11.82859013 10.26562078 13.66430827 10.3125 15.5 C10.34988281 16.4590625 10.38726563 17.418125 10.42578125 18.40625 C10 21 10 21 8.2109375 22.859375 C4.9307599 24.5516221 2.50917238 23.79452959 -1 23 C-2 22 -2 22 -2.09765625 20.15234375 C-2.04882812 17.07617188 -2.04882812 17.07617188 -2 14 C-2.66 14 -3.32 14 -4 14 C-3.95875 15.27875 -3.9175 16.5575 -3.875 17.875 C-3.8046875 20.0546875 -3.8046875 20.0546875 -4 22 C-6 24 -6 24 -8.875 24.3125 C-12.39217099 23.9607829 -13.52091978 23.45793668 -16 21 C-16.91952608 16.32272562 -16.58614457 11.58603825 -14.9375 7.125 C-10.82156779 2.61075177 -6.41579758 -1.53979142 0 0 Z M-10.58203125 8 C-13.18013523 11.66454336 -12.53364851 15.71387066 -12 20 C-10.68 20 -9.36 20 -8 20 C-7.67 17.03 -7.34 14.06 -7 11 C-1.25 10.875 -1.25 10.875 1 12 C1.59355614 14.64860427 1.74209269 17.29197322 2 20 C3.32 20 4.64 20 6 20 C6.85689187 13.68920701 6.85689187 13.68920701 4.58203125 8 C-1.01815719 3.03266868 -4.98184281 3.03266868 -10.58203125 8 Z " fill="#B7B7B7" transform="translate(19,4)"/>
</svg>
