<?xml version="1.0" encoding="UTF-8"?>
<svg version="1.1" xmlns="http://www.w3.org/2000/svg" width="23" height="26">
<path d="M0 0 C1.6396875 0.2475 1.6396875 0.2475 3.3125 0.5 C5.3125 3.5 5.3125 3.5 5.125 6 C4.26809826 8.63662075 3.42257147 9.75689748 1.3125 11.5 C1.9725 11.83 2.6325 12.16 3.3125 12.5 C0.72723237 18.36961273 -3.93586126 23.36697228 -9.875 25.8125 C-12.6875 25.5 -12.6875 25.5 -15.5625 23.375 C-17.9308881 20.17071022 -18.26325385 19.34215933 -17.6875 15.5 C-15.89453125 13 -15.89453125 13 -13.5 10.5 C-12.26056641 9.20449219 -12.26056641 9.20449219 -10.99609375 7.8828125 C-9.85333984 6.70332031 -9.85333984 6.70332031 -8.6875 5.5 C-8.20410156 4.91992188 -7.72070312 4.33984375 -7.22265625 3.7421875 C-4.8600193 0.95793521 -3.69623431 0.50118431 0 0 Z M-1.6875 2.5 C-3.88892332 4.9390706 -3.88892332 4.9390706 -5.6875 7.5 C-4.6975 7.5 -3.7075 7.5 -2.6875 7.5 C-3.18121094 8.04269531 -3.67492187 8.58539063 -4.18359375 9.14453125 C-4.82425781 9.85996094 -5.46492187 10.57539063 -6.125 11.3125 C-6.76308594 12.02019531 -7.40117187 12.72789063 -8.05859375 13.45703125 C-9.87836012 15.49896152 -9.87836012 15.49896152 -10.6875 18.5 C-6.90078334 16.95049295 -4.62294087 14.61710363 -1.875 11.625 C-1.06417969 10.76132813 -0.25335938 9.89765625 0.58203125 9.0078125 C2.58516599 6.68519136 2.58516599 6.68519136 2.07421875 4.1796875 C1.82285156 3.62539062 1.57148438 3.07109375 1.3125 2.5 C0.3225 2.5 -0.6675 2.5 -1.6875 2.5 Z M-13.6875 14.5 C-15.03154775 15.61836224 -15.03154775 15.61836224 -14.8125 18.5 C-15.03154775 21.38163776 -15.03154775 21.38163776 -13.6875 22.5 C-12.02132885 22.54063832 -10.35361905 22.542721 -8.6875 22.5 C-9.3475 22.108125 -10.0075 21.71625 -10.6875 21.3125 C-12.6875 19.5 -12.6875 19.5 -12.9375 16.8125 C-12.855 16.049375 -12.7725 15.28625 -12.6875 14.5 C-13.0175 14.5 -13.3475 14.5 -13.6875 14.5 Z M-3.6875 15.5 C-5.37838222 17.47956942 -7.04580472 19.47945196 -8.6875 21.5 C-6.06562506 20.45125002 -4.89378639 19.85068687 -3.4375 17.375 C-3.19 16.75625 -2.9425 16.1375 -2.6875 15.5 C-3.0175 15.5 -3.3475 15.5 -3.6875 15.5 Z " fill="#848181" transform="translate(17.6875,0.5)"/>
</svg>
