<?xml version="1.0" standalone="no"?>
<!DOCTYPE svg PUBLIC "-//W3C//DTD SVG 20010904//EN"
 "http://www.w3.org/TR/2001/REC-SVG-20010904/DTD/svg10.dtd">
<svg version="1.0" xmlns="http://www.w3.org/2000/svg"
 width="300.000000pt" height="300.000000pt" viewBox="0 0 300.000000 300.000000"
 preserveAspectRatio="xMidYMid meet">
<metadata>
Created by potrace 1.10, written by Peter Selinger 2001-2011
</metadata>
<g transform="translate(0.000000,300.000000) scale(0.050000,-0.050000)"
fill="#000000" stroke="none">
<path d="M2907 5121 c-36 -22 -74 -68 -89 -108 -25 -69 -26 -70 -118 -59 -182
21 -280 -80 -280 -290 l0 -118 -97 9 c-250 24 -263 -20 -263 -893 0 -862 1
-868 213 -1077 l127 -125 0 -500 0 -500 -65 26 -65 27 -5 430 -6 430 -101 105
c-61 63 -131 167 -175 259 l-73 153 -6 739 c-5 643 -2 750 26 824 42 111 160
224 261 251 72 20 141 156 79 156 -66 0 -388 -217 -547 -369 -1271 -1210 -421
-3321 1337 -3319 1735 2 2573 2136 1307 3328 -178 168 -529 396 -552 359 -31
-50 12 -539 47 -539 103 0 273 -136 323 -259 32 -80 19 -982 -17 -1139 -39
-175 -136 -347 -251 -451 l-97 -87 0 -438 0 -439 -70 -33 -70 -33 0 516 0 516
88 63 c103 75 196 213 252 374 61 177 60 1026 -1 1126 -63 105 -188 143 -304
94 -33 -13 -35 9 -35 319 0 369 -14 426 -119 481 -67 34 -212 40 -231 10 -23
-37 -50 -20 -50 32 0 148 -227 239 -373 149z m209 -147 c42 -45 44 -62 49
-653 5 -663 13 -703 114 -612 39 36 41 58 41 538 0 542 6 573 112 573 102 0
108 -37 108 -715 0 -579 -3 -627 -35 -637 -366 -115 -591 -350 -591 -618 0
-111 36 -230 70 -230 78 0 100 43 87 168 -28 264 243 552 518 552 98 0 111 39
111 342 0 307 17 343 146 311 66 -17 65 -13 54 -573 -10 -466 -12 -494 -57
-580 -118 -224 -334 -326 -537 -253 -81 29 -84 29 -114 -17 -56 -85 111 -171
279 -144 l69 11 0 -517 0 -517 -115 -27 c-148 -33 -618 -29 -765 8 l-110 27
-5 504 -6 505 106 0 c139 1 170 21 139 89 -20 44 -36 51 -119 51 -187 1 -367
140 -434 336 -48 141 -46 1434 2 1487 117 130 167 24 167 -354 0 -349 9 -379
104 -366 l46 7 10 556 c11 595 10 593 114 594 97 0 106 -49 106 -590 0 -505 6
-550 73 -550 82 0 87 37 87 665 0 532 4 606 33 638 45 50 91 46 143 -9z m930
-438 c980 -661 991 -2227 21 -2876 -149 -99 -204 -123 -173 -75 15 24 18 35
24 74 1 11 26 41 54 68 36 33 47 58 36 76 -36 58 -31 100 10 78 34 -18 45 34
24 118 -1 5 -15 -9 -31 -30 -29 -37 -43 -20 -33 38 2 10 -10 38 -26 62 -28 43
-26 45 19 40 27 -3 55 4 62 16 7 12 4 15 -9 8 -11 -8 -27 -5 -34 7 -7 11 -2
20 10 20 12 0 3 20 -19 44 -45 48 -16 93 33 52 14 -11 27 -18 28 -13 13 64 10
77 -14 77 -31 0 -35 18 -13 52 11 16 30 17 65 3 75 -31 100 -34 100 -11 0 11
-11 16 -25 11 -16 -6 -27 10 -29 43 -7 84 7 107 52 83 29 -15 44 -15 54 3 8
13 4 27 -9 32 -64 21 -69 90 -6 78 34 -7 67 -4 74 7 6 11 22 14 33 6 13 -8 16
-4 8 10 -8 13 -31 23 -51 23 -20 0 -42 14 -48 30 -7 17 -1 30 13 30 15 1 13 7
-6 19 -23 15 -20 19 14 16 24 -2 39 -9 35 -17 -5 -7 14 -18 42 -23 27 -5 55
-2 61 8 10 16 -20 26 -58 19 -10 -2 -11 6 -4 18 7 11 23 14 36 6 13 -8 3 11
-21 42 -45 58 -43 112 4 73 26 -22 51 -9 51 27 0 12 -9 9 -20 -8 -20 -31 -31
8 -21 77 2 15 -6 21 -17 14 -14 -8 -17 0 -8 21 9 23 5 30 -10 20 -16 -9 -19
-3 -11 19 10 26 16 27 29 6 10 -15 18 -19 18 -8 0 10 13 1 30 -20 27 -35 27
-31 1 33 -16 40 -24 79 -17 85 7 7 3 13 -9 13 -11 0 -26 13 -32 29 -7 19 1 26
27 21 33 -6 35 -1 16 41 -25 56 -7 88 28 53 33 -33 89 -30 103 6 11 28 -26 39
-122 35 -32 -1 -32 20 -1 51 18 18 15 30 -15 53 -38 28 -38 30 -3 65 33 33 35
33 23 1 -7 -19 -9 -35 -3 -35 33 0 26 66 -12 103 -24 23 -30 36 -14 28 17 -7
13 0 -9 18 -22 17 -28 31 -14 31 14 0 20 9 13 20 -7 11 8 20 34 20 37 1 40 4
16 20 -16 11 -23 20 -15 20 9 0 1 23 -17 50 -31 48 -31 50 10 50 23 0 42 9 42
20 0 11 0 27 0 35 0 8 -11 15 -25 16 -14 0 -23 12 -20 25 3 13 -4 24 -14 24
-11 0 -15 11 -10 25 25 65 -270 427 -329 405 -23 -9 -23 -5 -2 20 20 24 20 30
-3 31 -48 1 -90 47 -103 114 -16 82 -17 82 132 -19z m-2246 -255 c-11 -22 -19
-46 -18 -55 11 -63 -6 -126 -33 -126 -22 0 -26 -9 -12 -35 9 -19 14 -46 9 -60
-5 -14 7 -26 27 -27 34 -2 34 -3 2 -12 -21 -5 -30 -19 -21 -33 8 -13 0 -12
-19 4 -19 15 -45 22 -59 16 -16 -6 -12 -10 10 -11 20 -1 31 -11 24 -22 -7 -11
-4 -20 5 -20 10 0 19 -11 19 -25 1 -14 8 -41 16 -60 8 -20 6 -35 -6 -35 -17 0
-19 -40 -3 -80 2 -5 3 -17 1 -25 -1 -8 6 -15 16 -15 20 0 17 -29 -7 -83 -8
-19 -3 -54 9 -78 14 -25 15 -39 3 -31 -37 23 -45 -25 -15 -84 25 -48 25 -57 2
-57 -16 0 -23 7 -18 17 6 9 4 16 -6 14 -40 -7 -67 4 -56 22 7 11 -1 20 -18 20
-19 0 -26 -11 -19 -30 6 -16 24 -30 39 -30 15 0 45 -36 68 -79 46 -91 49 -109
17 -89 -16 10 -20 4 -11 -18 7 -19 6 -33 -2 -31 -45 6 -46 -9 -2 -56 26 -29
35 -46 20 -37 -22 12 -26 8 -16 -16 11 -29 7 -30 -27 -9 -23 14 -35 38 -28 54
6 17 5 23 -3 15 -8 -8 -36 0 -61 16 l-47 31 35 -63 c19 -34 42 -61 50 -60 33
5 100 -77 88 -107 -7 -18 -1 -31 13 -31 14 0 36 -28 49 -62 22 -59 21 -61 -12
-30 -20 17 -47 32 -61 32 -13 0 -19 9 -12 20 7 11 2 20 -10 20 -13 0 -16 11
-7 25 10 17 3 16 -20 -3 -29 -24 -32 -24 -22 4 13 33 -58 84 -90 65 -10 -7
-25 -1 -33 12 -8 13 -6 18 7 10 11 -7 33 3 48 21 23 29 23 31 -3 15 -49 -29
-84 -28 -72 3 6 16 -2 28 -20 28 -17 0 -25 -8 -19 -18 6 -10 0 -23 -14 -29
-15 -6 -11 -10 10 -11 19 -1 33 -13 30 -26 -3 -13 9 -25 25 -26 17 -1 27 -14
24 -29 -5 -23 0 -23 29 1 22 18 29 19 20 3 -9 -14 -6 -25 7 -25 12 0 17 -9 10
-20 -7 -12 -6 -20 4 -18 56 10 71 -2 43 -36 -15 -18 -17 -28 -4 -20 13 8 28 0
34 -16 7 -17 35 -30 65 -30 41 0 50 -7 39 -34 -7 -19 -7 -28 1 -20 8 7 32 -15
54 -51 22 -36 56 -77 77 -91 21 -15 32 -35 26 -46 -6 -10 6 -25 29 -33 22 -8
40 -24 41 -35 0 -11 10 -20 21 -20 11 0 19 -8 18 -18 -1 -10 11 -25 25 -34 19
-13 14 -17 -18 -18 -25 0 -45 11 -45 24 0 13 -13 6 -29 -15 -28 -37 -28 -37
-17 9 9 37 6 44 -14 32 -20 -12 -23 -7 -13 22 12 35 11 36 -14 3 -15 -19 -34
-28 -43 -20 -8 8 -3 -5 12 -30 15 -25 34 -46 43 -47 8 -2 24 -5 35 -8 11 -3
30 -6 42 -7 12 -2 17 -18 10 -36 -10 -26 -7 -28 14 -10 22 18 26 13 23 -22 -2
-25 5 -55 14 -68 12 -14 7 -34 -11 -53 -17 -16 -24 -36 -16 -45 8 -8 5 -10 -7
-4 -11 7 -34 4 -50 -6 -28 -18 -6 -29 44 -22 7 1 8 -18 2 -42 -11 -41 -12 -41
-27 -4 -8 21 -16 27 -17 13 0 -15 -12 -21 -26 -13 -14 7 -3 -5 23 -27 32 -26
44 -50 35 -73 -9 -24 -1 -38 27 -45 22 -6 41 -19 43 -28 1 -10 4 -34 5 -53 2
-19 19 -64 38 -100 40 -74 36 -77 -52 -32 -318 161 -682 660 -781 1070 -129
532 8 1099 373 1542 79 96 133 128 94 56z"/>
<path d="M3020 3488 c-104 -27 -283 -54 -396 -61 -223 -14 -282 -46 -213 -116
109 -108 859 40 859 170 0 64 -23 64 -250 7z"/>
<path d="M3004 2316 c-89 -89 -5 -431 87 -355 66 55 31 379 -41 379 -12 0 -33
-11 -46 -24z"/>
<path d="M4500 3458 c0 -11 22 -41 50 -66 27 -25 47 -50 45 -54 -3 -5 2 -3 11
4 9 7 -11 40 -45 74 -33 33 -61 52 -61 42z"/>
<path d="M4408 3252 c31 -25 33 -36 13 -60 -32 -40 -11 -71 39 -58 23 6 40 1
40 -13 0 -13 -10 -17 -23 -9 -15 9 -18 5 -8 -10 10 -17 22 -18 40 -3 13 11 31
14 39 6 8 -7 8 1 1 20 -7 19 -19 33 -26 32 -39 -5 -55 7 -58 43 -1 23 5 36 15
30 9 -6 22 -2 29 8 6 10 -5 16 -24 13 -19 -3 -53 3 -75 13 -39 18 -39 17 -2
-12z"/>
<path d="M4373 2510 c6 -16 23 -30 37 -30 14 0 37 -28 50 -61 17 -40 33 -54
45 -42 13 13 -6 45 -52 91 -78 78 -98 89 -80 42z"/>
<path d="M4240 2405 c0 -49 114 -127 140 -95 14 17 20 37 13 43 -6 7 -18 -3
-25 -22 -12 -29 -21 -25 -71 29 -31 34 -57 55 -57 45z"/>
<path d="M4200 2100 c-18 -33 -15 -40 14 -41 32 -2 31 -4 -4 -18 -33 -14 -28
-17 25 -16 64 1 64 1 23 37 -23 20 -36 45 -29 57 8 12 9 21 3 21 -6 0 -20 -18
-32 -40z"/>
<path d="M1618 3694 c13 -13 33 -25 43 -26 10 -2 25 -4 31 -5 7 -2 2 -16 -12
-33 -14 -16 -22 -31 -17 -32 100 -20 114 -1 46 63 -52 48 -137 79 -91 33z"/>
<path d="M1607 3549 c0 -15 5 -24 12 -20 25 16 85 -47 69 -73 -12 -20 -8 -20
18 1 19 16 34 37 34 49 0 11 -6 15 -13 8 -7 -8 -24 2 -37 20 -30 41 -83 51
-83 15z"/>
<path d="M1640 3220 c-12 -22 -10 -42 5 -57 33 -33 68 -28 68 8 0 21 -12 29
-35 23 -24 -7 -32 -1 -24 18 5 15 18 23 27 18 9 -6 21 -3 27 6 6 10 -3 17 -20
17 -17 0 -38 -15 -48 -33z"/>
<path d="M1388 2877 c-6 -9 4 -17 22 -17 18 0 27 -9 20 -20 -7 -11 3 -20 21
-20 25 0 31 -12 22 -45 -10 -42 -9 -42 16 -9 26 35 29 34 69 -9 23 -24 42 -39
42 -32 0 25 -95 115 -122 115 -23 1 -23 4 -1 18 19 12 13 19 -26 27 -28 5 -57
2 -63 -8z"/>
<path d="M1740 2550 c-22 -26 -20 -29 11 -17 28 11 33 7 23 -19 -7 -19 -6 -33
2 -31 38 5 64 -5 59 -25 -3 -13 11 -25 30 -29 19 -3 35 4 35 15 0 11 -13 15
-29 9 -18 -7 -25 -1 -19 14 17 46 -81 120 -112 83z"/>
<path d="M1960 2166 c0 -3 20 -24 45 -48 25 -24 34 -38 21 -31 -13 8 -28 6
-34 -3 -21 -34 49 -16 82 21 28 30 29 37 5 31 -16 -3 -27 3 -26 14 2 11 -18
20 -45 20 -26 0 -48 -2 -48 -4z"/>
</g>
</svg>
