<?xml version="1.0" encoding="UTF-8"?>
<svg version="1.1" xmlns="http://www.w3.org/2000/svg" width="264" height="434">
<path d="M0 0 C5.32665455 4.34719414 5.46953418 9.68160877 6.19111443 16.13729668 C6.79658016 22.52984826 6.8508693 28.91499301 6.85375977 35.33227539 C6.86144835 36.76988692 6.86999974 38.20749404 6.8793335 39.64509583 C6.89741814 42.7076215 6.90957915 45.77008856 6.91687202 48.83265877 C6.92850107 53.68948363 6.9540165 58.54617961 6.98118591 63.40293884 C7.02261786 71.092254 7.05512941 78.78157574 7.08366007 86.47094864 C7.13479907 100.22786992 7.19730393 113.98473459 7.26900047 127.74156374 C7.29368549 132.55553247 7.31322114 137.36948496 7.32838261 142.18349278 C7.33869311 145.19204538 7.35283813 148.20057214 7.36785889 151.20910454 C7.3768024 153.23875671 7.38106754 155.26842787 7.38511658 157.2980957 C6.30453756 171.74877574 6.30453756 171.74877574 10.55078125 184.265625 C11.87078125 184.265625 13.19078125 184.265625 14.55078125 184.265625 C15.57631946 180.88005377 15.67549118 177.79331718 15.675354 174.26448059 C15.67791702 173.03510773 15.68048004 171.80573486 15.68312073 170.53910828 C15.68105087 169.1794738 15.67892812 167.8198394 15.67675781 166.46020508 C15.67815307 165.02595972 15.6800527 163.59171478 15.68241882 162.1574707 C15.68691264 159.06964093 15.68877184 155.98182443 15.68888092 152.89399147 C15.69002269 148.00584685 15.70287221 143.11777751 15.71844482 138.22966003 C15.72101768 137.40402599 15.72359053 136.57839194 15.72624135 135.72773868 C15.73150791 134.03942929 15.73679339 132.35111996 15.74209738 130.66281068 C15.77717575 119.28520523 15.80376152 107.90769335 15.80126953 96.5300293 C15.79967836 88.8524346 15.81577708 81.17509689 15.85197616 73.49758452 C15.87039602 69.43783598 15.87981412 65.37851629 15.86750031 61.31873512 C15.85601795 57.49601177 15.86787247 53.67405461 15.89713478 49.8514328 C15.90374553 48.45391153 15.90195987 47.05631946 15.89083672 45.65882683 C15.81623312 35.4315433 17.32981914 28.9890826 24.17578125 21.328125 C28.61273696 17.47497925 31.03404298 16.97042244 36.86328125 16.953125 C38.80654297 16.92798828 38.80654297 16.92798828 40.7890625 16.90234375 C46.28008055 17.43262898 49.42942394 19.14426769 53.30078125 23.015625 C58.01245331 29.82137353 57.84925243 36.56439291 57.85375977 44.58398438 C57.8621991 45.70563995 57.87063843 46.82729553 57.8793335 47.98294067 C57.9051096 51.69175665 57.91726968 55.40049231 57.9296875 59.109375 C57.94589003 61.71554165 57.96307284 64.32170237 57.98118591 66.92785645 C58.02281101 73.10616765 58.05519876 79.28448744 58.08366007 85.46287203 C58.1433913 98.38678597 58.22235886 111.31058787 58.3046875 124.234375 C58.31257923 125.53189697 58.32047096 126.82941895 58.32860184 128.16625977 C58.4459432 146.87907033 58.70233047 165.57010884 59.55078125 184.265625 C61.96697948 184.51593477 61.96697948 184.51593477 64.55078125 184.265625 C67.00354992 180.586472 66.99290211 177.59304366 67.16259766 173.31884766 C67.20011957 172.52158579 67.23764149 171.72432392 67.27630043 170.9029026 C67.63580236 162.62144747 67.71646361 154.3387311 67.75001144 146.05054855 C67.76207762 143.33324389 67.78157992 140.61607949 67.8031311 137.89883423 C67.86391552 130.18895104 67.91896932 122.47909938 67.95214844 114.76904297 C67.9731341 110.01489111 68.00843094 105.26102574 68.05290604 100.50703812 C68.06699228 98.7106424 68.07577167 96.91419638 68.07896042 95.11774826 C68.08389138 92.61123337 68.10709289 90.10547997 68.13427734 87.59912109 C68.12976814 86.50648956 68.12976814 86.50648956 68.12516785 85.39178467 C68.2407529 78.18374765 70.26030585 71.41311458 75.55078125 66.265625 C81.20806533 62.26221051 86.72474735 61.31342195 93.55078125 62.265625 C96.86328125 63.515625 96.86328125 63.515625 99.55078125 65.265625 C100.41703125 65.8225 101.28328125 66.379375 102.17578125 66.953125 C107.73634628 72.36735937 109.00813109 78.17026453 109.15640259 85.76078796 C109.15826065 87.38933464 109.15826065 87.38933464 109.16015625 89.05078125 C109.17678314 90.22135574 109.19341003 91.39193024 109.21054077 92.59797668 C109.25165298 95.82699228 109.2748684 99.05552533 109.28940582 102.28475189 C109.30481582 105.05285636 109.33430328 107.82074362 109.36366463 110.58872986 C109.45959762 119.68756573 109.50573689 128.78636787 109.54109192 137.88561249 C109.55077041 140.2629616 109.56193439 142.64029906 109.5736084 145.01763916 C109.69445522 169.76750985 109.67886109 194.51581321 109.55078125 219.265625 C109.54652382 220.11162262 109.54226639 220.95762024 109.53787994 221.82925415 C109.48197489 232.76460746 109.40161886 243.69944584 109.28631592 254.63433838 C109.25354569 257.7571634 109.22651742 260.87994705 109.20489502 264.00286865 C108.91640775 303.69594087 103.60501266 338.52676879 76.55078125 369.265625 C75.761875 370.18021484 75.761875 370.18021484 74.95703125 371.11328125 C58.0778804 389.32726291 30.08858853 403.01837399 5.31298828 404.38946533 C-0.17238176 404.59607086 -5.65521696 404.6371491 -11.14404297 404.63623047 C-14.04715527 404.64058441 -16.94871977 404.67693992 -19.8515625 404.71484375 C-34.88309155 404.80645348 -48.55695266 402.74171891 -62.57421875 397.078125 C-63.3115625 396.78478271 -64.04890625 396.49144043 -64.80859375 396.18920898 C-93.0468387 384.52334469 -113.93006016 362.39853427 -125.59716797 334.44042969 C-134.99534404 310.45219116 -134.60955731 285.26169426 -134.6171875 259.8984375 C-134.62040742 257.366933 -134.62377203 254.83542868 -134.62727356 252.30392456 C-134.63322648 247.02748311 -134.63516047 241.75105338 -134.63452148 236.47460938 C-134.63391868 230.40098356 -134.64452679 224.32744595 -134.66026515 218.25384247 C-134.674968 212.36665952 -134.67850836 206.47951131 -134.67791176 200.59231186 C-134.67908742 198.10534172 -134.68348582 195.61837083 -134.69124413 193.13141251 C-134.70108349 189.65540504 -134.69815157 186.1796247 -134.69213867 182.70361328 C-134.69775818 181.68936783 -134.70337769 180.67512238 -134.70916748 179.63014221 C-134.63336987 162.31380131 -134.63336987 162.31380131 -129.44921875 156.265625 C-123.44594099 151.85736037 -118.07596665 149.31057607 -110.44921875 150.265625 C-104.18398208 152.20960497 -100.19861388 155.99830865 -96.44921875 161.265625 C-92.59486764 168.97432722 -94.3222907 180.39909048 -94.3515625 188.89453125 C-94.35343072 190.49592545 -94.35485272 192.09732023 -94.35585022 193.69871521 C-94.35964356 197.88585018 -94.36944618 202.0729497 -94.3805542 206.2600708 C-94.39083723 210.54381837 -94.39536252 214.82757174 -94.40039062 219.11132812 C-94.41107172 227.4961099 -94.42810929 235.88086302 -94.44921875 244.265625 C-93.77823654 244.26005081 -93.10725433 244.25447662 -92.41593933 244.24873352 C-91.52739761 244.24439804 -90.6388559 244.24006256 -89.72338867 244.2355957 C-88.84615646 244.23002151 -87.96892426 244.22444733 -87.06510925 244.21870422 C-66.05801576 244.59550483 -44.39275362 252.63978163 -29.23828125 267.2578125 C-11.98836767 285.40317941 -2.52646921 305.15454526 -1.44921875 330.265625 C1.19078125 329.935625 3.83078125 329.605625 6.55078125 329.265625 C8.10942799 307.83423231 -2.78193791 286.09458993 -16.19921875 270.203125 C-33.01928505 250.81215682 -52.32473691 241.52289439 -77.3984375 236.6484375 C-78.08143921 236.51381104 -78.76444092 236.37918457 -79.46813965 236.24047852 C-81.12811483 235.91356874 -82.78861228 235.58931274 -84.44921875 235.265625 C-84.47306154 218.70005661 -84.49044044 202.13449414 -84.50103092 185.56891251 C-84.50608887 177.8693406 -84.51295258 170.16977974 -84.5246582 162.47021484 C-84.57027882 131.71839606 -84.56994614 100.96743688 -84.12655449 70.21813202 C-84.08941537 67.59779592 -84.05519464 64.97741664 -84.02406502 62.35700226 C-83.97966528 58.76088004 -83.92248988 55.16520292 -83.86108398 51.56933594 C-83.84972601 50.51944237 -83.83836803 49.4695488 -83.82666588 48.38784027 C-83.57478584 35.91710559 -83.57478584 35.91710559 -79.93359375 31.375 C-74.02716086 26.74563368 -69.2870626 23.33571132 -61.44921875 24.265625 C-55.72403819 26.0984711 -51.27460914 28.51286725 -47.44921875 33.265625 C-41.69302312 45.46775174 -44.25748623 63.14193138 -44.18885803 76.31098747 C-44.16762096 80.35926633 -44.14075467 84.40747205 -44.11218262 88.45570374 C-44.04749254 97.7679695 -43.99158648 107.08028365 -43.93619537 116.39260864 C-43.88521259 124.95688028 -43.832311 133.52112731 -43.77166986 142.08533674 C-43.74807942 145.4483248 -43.72649114 148.81130096 -43.70957947 152.17432976 C-43.69016813 155.91696011 -43.66501528 159.65951257 -43.63867188 163.40209961 C-43.63448746 164.50507889 -43.63030304 165.60805817 -43.62599182 166.74446106 C-44.12004502 176.21461187 -44.12004502 176.21461187 -40.44921875 184.265625 C-38.37468315 184.4146962 -38.37468315 184.4146962 -36.44921875 183.265625 C-34.57061288 178.82827714 -34.20226446 175.00782013 -34.21112061 170.22000122 C-34.2095616 169.5344824 -34.20800259 168.84896358 -34.20639634 168.14267147 C-34.2034538 165.85819247 -34.21459094 163.57400187 -34.22558594 161.28955078 C-34.22611047 159.64649458 -34.2256738 158.00343783 -34.22434998 156.36038208 C-34.22301833 152.82784531 -34.22741543 149.29537817 -34.23595428 145.76285172 C-34.24835473 140.17330871 -34.24137739 134.58389447 -34.23052979 128.99435425 C-34.20208776 113.10183253 -34.18963602 97.20942189 -34.21923828 81.31689453 C-34.23543327 72.5351086 -34.2302733 63.75360405 -34.201442 54.97184741 C-34.18716062 50.32802423 -34.18410133 45.68478678 -34.20766449 41.04098892 C-34.22982904 36.67240141 -34.22424275 32.30472326 -34.19767952 27.93616867 C-34.1929185 26.33663872 -34.1983394 24.7370397 -34.21491051 23.1375885 C-34.35603129 8.54999411 -34.35603129 8.54999411 -29.0286293 2.68900871 C-20.98039752 -4.5641542 -9.56102242 -5.34230077 0 0 Z " fill="#000000" transform="translate(146.44921875,11.734375)"/>
</svg>
