<?xml version="1.0" encoding="UTF-8"?>
<svg version="1.1" xmlns="http://www.w3.org/2000/svg" width="200" height="200">
<path d="M0 0 C4.46571013 2.1922577 6.87032157 4.50401221 9 9 C9 9.66 9 10.32 9 11 C9.73605469 10.96519531 10.47210938 10.93039063 11.23046875 10.89453125 C19.05275212 10.67753264 19.05275212 10.67753264 22.9375 12 C26.4685342 15.42403317 28.71756031 19.35941301 29.24609375 24.30078125 C29.2494712 26.20228807 29.13547697 28.10332248 29 30 C29.65226562 29.95359375 30.30453125 29.9071875 30.9765625 29.859375 C36.87712549 29.61569393 40.41883824 29.86578085 45 34 C48.60896731 38.55933375 48.43288335 42.70257459 48.40405273 48.265625 C48.41091599 49.19156967 48.41777924 50.11751434 48.42485046 51.07151794 C48.44314093 54.13116837 48.43927483 57.19030662 48.43359375 60.25 C48.43815722 62.3864763 48.44346328 64.52295112 48.44947815 66.65942383 C48.45841575 71.1416621 48.45598189 75.62372232 48.44604492 80.10595703 C48.43460418 85.82076085 48.45468832 91.53494225 48.48396206 97.24966431 C48.50241368 101.66635993 48.50201296 106.08290924 48.49632454 110.49963379 C48.49617215 112.6045417 48.50214749 114.70946006 48.51461601 116.81433105 C48.61179228 135.92312326 45.94532224 149.29772799 33.19921875 164.08984375 C22.28912111 174.75803235 8.18311437 178.29541387 -6.50488281 178.31689453 C-13.96602852 178.21785277 -20.2444695 177.35166197 -27 174 C-27.86496094 173.57589844 -28.72992188 173.15179688 -29.62109375 172.71484375 C-42.92180849 165.4470255 -50.90845579 154.07849943 -55.16845703 139.76513672 C-56.69296932 132.86230979 -56.57344006 125.96812869 -56.53125 118.9375 C-56.53395194 117.33137783 -56.53784016 115.72525727 -56.54284668 114.11914062 C-56.54869527 110.78092615 -56.54032161 107.44314413 -56.52148438 104.10498047 C-56.49854785 99.83336037 -56.51193871 95.5627377 -56.53577423 91.29115295 C-56.55023243 87.98651611 -56.54562879 84.68211592 -56.53526306 81.37747192 C-56.53260348 79.80184814 -56.53583841 78.22620258 -56.54518127 76.65060425 C-56.55536449 74.45398866 -56.53983099 72.25899493 -56.51757812 70.0625 C-56.51439575 68.81597656 -56.51121338 67.56945312 -56.50793457 66.28515625 C-55.90626233 62.39373509 -54.78390917 60.73991537 -52 58 C-48.49852959 56.8328432 -45.67329964 56.86642547 -42 57 C-41.34 57.33 -40.68 57.66 -40 58 C-39.98541748 56.97640381 -39.97083496 55.95280762 -39.95581055 54.89819336 C-39.89753495 51.07542189 -39.82030579 47.25322155 -39.73754883 43.4309082 C-39.7044364 41.7812634 -39.67636244 40.13150904 -39.65356445 38.48168945 C-39.61976467 36.10060232 -39.56743996 33.72050694 -39.51171875 31.33984375 C-39.50213387 30.24566383 -39.50213387 30.24566383 -39.49235535 29.12937927 C-39.32350944 23.15663248 -37.85878646 18.64519611 -34.375 13.6875 C-29.81590861 10.44814559 -24.48019763 10 -19 10 C-18.443125 8.906875 -17.88625 7.81375 -17.3125 6.6875 C-13.2373924 -0.27825487 -7.65053872 -1.10344309 0 0 Z M-8.72297668 10.07710266 C-10.63297377 12.95310991 -10.40157912 15.3359142 -10.43237305 18.76635742 C-10.4425647 19.44954544 -10.45275635 20.13273346 -10.46325684 20.83662415 C-10.49343178 23.09298861 -10.5026592 25.34892887 -10.51171875 27.60546875 C-10.52856219 29.17061275 -10.54671198 30.7357432 -10.56611633 32.30085754 C-10.61365927 36.41897343 -10.64344064 40.53703438 -10.66955566 44.65533447 C-10.69933968 48.85822402 -10.74587736 53.06092414 -10.79101562 57.26367188 C-10.87709751 65.50902162 -10.94442083 73.75438851 -11 82 C-13.31 81.67 -15.62 81.34 -18 81 C-18.00142502 80.29700272 -18.00285004 79.59400543 -18.00431824 78.8697052 C-18.022172 72.23396673 -18.06385476 65.59885154 -18.13209057 58.96342945 C-18.16633468 55.55227232 -18.19146631 52.14156175 -18.19555664 48.73022461 C-18.20066642 44.8054215 -18.24579916 40.88156327 -18.29296875 36.95703125 C-18.2890361 35.73603226 -18.28510345 34.51503326 -18.28105164 33.2570343 C-18.16886871 26.35890636 -18.16886871 26.35890636 -21.54418945 20.69018555 C-22.35460693 20.13242432 -23.16502441 19.57466309 -24 19 C-27.62793998 20.86566488 -27.62793998 20.86566488 -30 24 C-30.09940576 25.42884288 -30.13829029 26.86215399 -30.14526367 28.29443359 C-30.15164352 29.1823056 -30.15802338 30.07017761 -30.16459656 30.98495483 C-30.16570938 31.94640411 -30.1668222 32.90785339 -30.16796875 33.8984375 C-30.17129715 34.88494293 -30.17462555 35.87144836 -30.17805481 36.8878479 C-30.18312385 38.97763604 -30.18546314 41.06743228 -30.18530273 43.15722656 C-30.18748631 46.35495362 -30.20563432 49.55233416 -30.22460938 52.75 C-30.22754387 54.77864465 -30.22952829 56.80729094 -30.23046875 58.8359375 C-30.23765427 59.79333832 -30.24483978 60.75073914 -30.25224304 61.7371521 C-30.24916641 62.63132843 -30.24608978 63.52550476 -30.24291992 64.44677734 C-30.24434494 65.23128265 -30.24576996 66.01578796 -30.24723816 66.82406616 C-29.96959316 69.26760946 -29.12898857 70.83586498 -28 73 C-27.88745117 75.97338867 -27.88745117 75.97338867 -28.04296875 79.41796875 C-28.95477288 92.1796755 -28.95477288 92.1796755 -25.78222656 104.12646484 C-22.44790965 107.49816199 -18.31033075 109.12007261 -14 111 C-7.0075875 116.87575347 -3.81257779 125.250347 -2.98046875 134.15234375 C-3 136 -3 136 -4 138 C-5.98 138 -7.96 138 -10 138 C-10.14695313 137.31035156 -10.29390625 136.62070313 -10.4453125 135.91015625 C-13.72595017 122.16541566 -20.52584532 116.24602826 -32 109 C-32.99 108.34 -33.98 107.68 -35 107 C-35.38476562 104.0065918 -35.38476562 104.0065918 -35.40625 100.19921875 C-35.41708618 99.52582962 -35.42792236 98.85244049 -35.43908691 98.15864563 C-35.47340929 96.00150013 -35.48894513 93.84488281 -35.5 91.6875 C-35.51460856 88.85756738 -35.5484095 86.02880749 -35.59375 83.19921875 C-35.60083984 81.93940186 -35.60792969 80.67958496 -35.61523438 79.3815918 C-36.17672456 74.44681991 -38.2372946 71.26918722 -42.0625 68.1875 C-44.65692748 65.80091128 -44.65692748 65.80091128 -47 66 C-47.09319603 74.65877754 -47.16401397 83.31737909 -47.20724869 91.97655106 C-47.2280124 95.99854661 -47.25612099 100.02019586 -47.30175781 104.04199219 C-47.34562106 107.93239433 -47.36922115 111.82246604 -47.37950897 115.71309662 C-47.38682855 117.18808942 -47.40111924 118.66306672 -47.42292023 120.13791656 C-47.63605808 135.17195287 -44.49715006 146.78275248 -34.15625 158 C-24.28403848 167.38669292 -12.76215916 169.57796765 0.3671875 169.34375 C12.17019259 168.76682103 21.44234952 161.97803783 29.25 153.625 C36.6403762 144.9884035 39.30812043 136.02358511 39.2746582 124.80761719 C39.2823246 123.46731949 39.2823246 123.46731949 39.29014587 122.09994507 C39.30397428 119.16551909 39.30309117 116.23132955 39.30078125 113.296875 C39.30466994 111.25140293 39.30900496 109.20593165 39.31376648 107.16046143 C39.32121268 102.88364028 39.32094757 98.60690173 39.31567383 94.33007812 C39.30986031 88.8431352 39.32686327 83.35652775 39.3500185 77.86964035 C39.36472426 73.65067563 39.36563222 69.43179251 39.36250877 65.2128067 C39.36302289 63.18895042 39.36827742 61.16508967 39.37832069 59.14125824 C39.3906159 56.31888186 39.38393684 53.4971699 39.37231445 50.67480469 C39.37995819 49.83631989 39.38760193 48.99783508 39.39547729 48.13394165 C39.46827506 43.90590747 39.46827506 43.90590747 37.63676739 40.25038528 C36.00208199 38.71498836 36.00208199 38.71498836 33.4375 39.1875 C30.85558728 39.84627033 30.85558728 39.84627033 29 42 C28.67708013 44.01149217 28.67708013 44.01149217 28.69702148 46.34204102 C28.68037949 47.2395961 28.66373749 48.13715118 28.64659119 49.06190491 C28.63817703 50.03276535 28.62976288 51.00362579 28.62109375 52.00390625 C28.60409927 52.9975267 28.5871048 53.99114716 28.56959534 55.01487732 C28.51633456 58.19735321 28.47610561 61.37981515 28.4375 64.5625 C28.39364348 67.74868852 28.3469984 70.93477307 28.29469299 74.12083435 C28.26261756 76.10615779 28.23576499 78.09157337 28.21446228 80.07704163 C28.20097244 80.97144455 28.1874826 81.86584747 28.17358398 82.78735352 C28.15931618 83.97410423 28.15931618 83.97410423 28.14476013 85.18482971 C28 87 28 87 27 88 C24.5 88.125 24.5 88.125 22 88 C20.21611356 86.21611356 20.85646453 83.57863692 20.84228516 81.16674805 C20.83202301 79.91842697 20.82176086 78.6701059 20.81118774 77.38395691 C20.80774982 76.71248312 20.8043119 76.04100933 20.80076981 75.34918785 C20.78900689 73.2518039 20.76956011 71.15462832 20.74765015 69.05732727 C20.68595397 63.09273218 20.63201623 57.12815599 20.59863281 51.16333008 C20.57767894 47.51803562 20.54236645 43.87311669 20.49787521 40.22803688 C20.48371577 38.83863563 20.47499288 37.44916788 20.47182083 36.0596981 C20.46690887 34.11352943 20.44213518 32.16744163 20.41650391 30.22143555 C20.40841705 29.11414597 20.4003302 28.00685638 20.39199829 26.86601257 C19.95482843 23.66973765 19.25725145 22.27413255 17 20 C14.5 19.33333333 14.5 19.33333333 12 20 C8.97973328 23.1066829 8.61469303 25.43175027 8.56762695 29.68652344 C8.54783279 30.82740417 8.52803864 31.96828491 8.50764465 33.14373779 C8.49805977 34.98297821 8.49805977 34.98297821 8.48828125 36.859375 C8.47033005 38.11888977 8.45237885 39.37840454 8.43388367 40.67608643 C8.388894 44.01668884 8.35659478 47.35692392 8.33044434 50.69769287 C8.30061064 54.10979498 8.25409008 57.5216654 8.20898438 60.93359375 C8.12394979 67.62228889 8.05564137 74.31099928 8 81 C5.625 81.625 5.625 81.625 3 82 C0.20788939 79.20788939 0.74275794 77.4896956 0.72875977 73.57836914 C0.72353302 72.91965317 0.71830627 72.26093719 0.71292114 71.58226013 C0.70267185 70.15050201 0.69689912 68.71870652 0.69503975 67.28691292 C0.6913844 65.02161793 0.67468166 62.75676405 0.65428162 60.49156189 C0.59878659 54.05085441 0.56816616 47.61008156 0.54370117 41.16918945 C0.52783908 37.23101191 0.49763416 33.29314695 0.45893669 29.35513115 C0.44727381 27.85324862 0.44135623 26.35131021 0.44125557 24.8493824 C0.44106382 22.74959754 0.42282145 20.65067633 0.40063477 18.55102539 C0.39556412 17.35570694 0.39049347 16.16038849 0.38526917 14.92884827 C0.22350601 12.03005037 0.22350601 12.03005037 -1.27503967 10.09056091 C-3.88981795 8.43743595 -6.09972388 8.43720085 -8.72297668 10.07710266 Z " fill="#000000" transform="translate(104,11)"/>
</svg>
