<?xml version="1.0" encoding="UTF-8"?>
<svg version="1.1" xmlns="http://www.w3.org/2000/svg" width="25" height="25">
<path d="M0 0 C3.03978021 0.68164768 4.80055419 2.23591662 6.93359375 4.43359375 C8.48880452 7.54401529 7.89785076 10.69724086 7.7734375 14.12109375 C7.69298013 16.63068822 7.69298013 16.63068822 9.93359375 18.43359375 C9.93359375 19.42359375 9.93359375 20.41359375 9.93359375 21.43359375 C5.93359375 20.43359375 5.93359375 20.43359375 4.12109375 19.87109375 C1.7512936 19.29551044 1.7512936 19.29551044 -1.44140625 19.68359375 C-5.06640625 19.43359375 -5.06640625 19.43359375 -8.50390625 17.49609375 C-11.49864523 13.91701546 -11.91955396 12.13854882 -11.578125 7.59375 C-10.11856088 1.43238391 -5.77821305 -0.36045563 0 0 Z M-7.00390625 4.49609375 C-8.68046915 7.55335551 -8.43169602 10.02422255 -8.06640625 13.43359375 C-7.14973958 15.51692708 -7.14973958 15.51692708 -5.06640625 16.43359375 C-1.65703505 16.79888352 0.81383199 17.04765665 3.87109375 15.37109375 C5.54765665 12.31383199 5.29888352 9.84296495 4.93359375 6.43359375 C4.01692708 4.35026042 4.01692708 4.35026042 1.93359375 3.43359375 C-1.47577745 3.06830398 -3.94664449 2.81953085 -7.00390625 4.49609375 Z " fill="#2C2C2C" transform="translate(13.06640625,1.56640625)"/>
</svg>
