<?xml version="1.0" encoding="UTF-8"?>
<svg version="1.1" xmlns="http://www.w3.org/2000/svg" width="33" height="32">
<path d="M0 0 C0.33 1.32 0.66 2.64 1 4 C-0.7015625 4.2165625 -0.7015625 4.2165625 -2.4375 4.4375 C-5.80777201 4.61171478 -5.80777201 4.61171478 -7 6 C-7.09873816 7.99799572 -7.12971799 9.99957158 -7.125 12 C-7.12886719 13.6396875 -7.12886719 13.6396875 -7.1328125 15.3125 C-7.30547755 17.91830354 -7.30547755 17.91830354 -6 19 C-4.16884117 19.09851171 -2.33380067 19.12972629 -0.5 19.125 C1.00046875 19.12886719 1.00046875 19.12886719 2.53125 19.1328125 C4.94399622 19.27870382 4.94399622 19.27870382 6 18 C6.36760731 15.67182036 6.70241581 13.3381615 7 11 C8.32 10.67 9.64 10.34 11 10 C11.46782178 18.10891089 11.46782178 18.10891089 9.6875 21.5 C5.96405612 24.80972789 1.37537512 24.26389187 -3.328125 24.2265625 C-6.57828704 23.95096396 -8.53324636 23.13785316 -11 21 C-12.46961466 18.06077067 -12.20919862 15.39591028 -12.25 12.125 C-12.27578125 10.89007813 -12.3015625 9.65515625 -12.328125 8.3828125 C-11.98200391 4.81446891 -11.5454407 3.46217862 -9 1 C-5.8035914 -0.06546953 -3.34252724 -0.07427838 0 0 Z " fill="#B7B7B7" transform="translate(17,4)"/>
<path d="M0 0 C-0.14984164 4.94477428 -2.83605122 7.31042955 -6.11328125 10.64453125 C-8 12 -8 12 -12 12 C-11.43573848 8.20405883 -9.81748138 6.41289367 -7.125 3.75 C-6.07699219 2.69039063 -6.07699219 2.69039063 -5.0078125 1.609375 C-3 0 -3 0 0 0 Z " fill="#B8B8B8" transform="translate(27,5)"/>
</svg>
